<?xml version="1.0" encoding="UTF-8"?>
<svg xmlns="http://www.w3.org/2000/svg" xmlns:xlink="http://www.w3.org/1999/xlink" width="600pt" height="30pt" viewBox="0 0 600 30" version="1.1" shape-rendering="crispEdges">
<defs>
<linearGradient id="linear0" gradientUnits="userSpaceOnUse" x1="0" y1="0" x2="100" y2="0" >
<stop offset="0" style="stop-color:rgb(0%,0%,100%);stop-opacity:1;"/>
<stop offset="1" style="stop-color:rgb(0%,0%,100%);stop-opacity:0.5;"/>
</linearGradient>
<linearGradient id="linear1" gradientUnits="userSpaceOnUse" x1="100" y1="0" x2="200" y2="0" >
<stop offset="0" style="stop-color:rgb(100%,0%,0%);stop-opacity:1;"/>
<stop offset="1" style="stop-color:rgb(100%,0%,0%);stop-opacity:0.5;"/>
</linearGradient>
<linearGradient id="linear2" gradientUnits="userSpaceOnUse" x1="200" y1="0" x2="300" y2="0" >
<stop offset="0" style="stop-color:rgb(0%,0%,100%);stop-opacity:1;"/>
<stop offset="1" style="stop-color:rgb(0%,0%,100%);stop-opacity:0.5;"/>
</linearGradient>
<linearGradient id="linear3" gradientUnits="userSpaceOnUse" x1="300" y1="0" x2="400" y2="0" >
<stop offset="0" style="stop-color:rgb(100%,0%,0%);stop-opacity:1;"/>
<stop offset="1" style="stop-color:rgb(100%,0%,0%);stop-opacity:0.5;"/>
</linearGradient>
<linearGradient id="linear4" gradientUnits="userSpaceOnUse" x1="400" y1="0" x2="500" y2="0" >
<stop offset="0" style="stop-color:rgb(0%,0%,100%);stop-opacity:1;"/>
<stop offset="1" style="stop-color:rgb(0%,0%,100%);stop-opacity:0.5;"/>
</linearGradient>
<linearGradient id="linear5" gradientUnits="userSpaceOnUse" x1="500" y1="0" x2="600" y2="0" >
<stop offset="0" style="stop-color:rgb(100%,0%,0%);stop-opacity:1;"/>
<stop offset="1" style="stop-color:rgb(100%,0%,0%);stop-opacity:0.5;"/>
</linearGradient>
<linearGradient id="linear6" gradientUnits="userSpaceOnUse" x1="0" y1="0" x2="100" y2="0" >
<stop offset="0" style="stop-color:rgb(100%,64.705882%,0%);stop-opacity:1;"/>
<stop offset="1" style="stop-color:rgb(100%,64.705882%,0%);stop-opacity:0.5;"/>
</linearGradient>
<linearGradient id="linear7" gradientUnits="userSpaceOnUse" x1="100" y1="0" x2="200" y2="0" >
<stop offset="0" style="stop-color:rgb(50.196078%,50.196078%,50.196078%);stop-opacity:1;"/>
<stop offset="1" style="stop-color:rgb(50.196078%,50.196078%,50.196078%);stop-opacity:0.5;"/>
</linearGradient>
<linearGradient id="linear8" gradientUnits="userSpaceOnUse" x1="200" y1="0" x2="300" y2="0" >
<stop offset="0" style="stop-color:rgb(50.196078%,0%,50.196078%);stop-opacity:1;"/>
<stop offset="1" style="stop-color:rgb(50.196078%,0%,50.196078%);stop-opacity:0.5;"/>
</linearGradient>
<linearGradient id="linear9" gradientUnits="userSpaceOnUse" x1="300" y1="0" x2="400" y2="0" >
<stop offset="0" style="stop-color:rgb(100%,64.705882%,0%);stop-opacity:1;"/>
<stop offset="1" style="stop-color:rgb(100%,64.705882%,0%);stop-opacity:0.5;"/>
</linearGradient>
<linearGradient id="linear10" gradientUnits="userSpaceOnUse" x1="400" y1="0" x2="500" y2="0" >
<stop offset="0" style="stop-color:rgb(50.196078%,50.196078%,50.196078%);stop-opacity:1;"/>
<stop offset="1" style="stop-color:rgb(50.196078%,50.196078%,50.196078%);stop-opacity:0.5;"/>
</linearGradient>
<linearGradient id="linear11" gradientUnits="userSpaceOnUse" x1="500" y1="0" x2="600" y2="0" >
<stop offset="0" style="stop-color:rgb(50.196078%,0%,50.196078%);stop-opacity:1;"/>
<stop offset="1" style="stop-color:rgb(50.196078%,0%,50.196078%);stop-opacity:0.5;"/>
</linearGradient>
</defs>
<g id="surface133">
<path style=" stroke:none;fill-rule:nonzero;fill:url(#linear0);" d="M 0 0 L 100 0 L 100 15 L 0 15 Z M 0 0 "/>
<path style=" stroke:none;fill-rule:nonzero;fill:url(#linear1);" d="M 100 0 L 200 0 L 200 15 L 100 15 Z M 100 0 "/>
<path style=" stroke:none;fill-rule:nonzero;fill:url(#linear2);" d="M 200 0 L 300 0 L 300 15 L 200 15 Z M 200 0 "/>
<path style=" stroke:none;fill-rule:nonzero;fill:url(#linear3);" d="M 300 0 L 400 0 L 400 15 L 300 15 Z M 300 0 "/>
<path style=" stroke:none;fill-rule:nonzero;fill:url(#linear4);" d="M 400 0 L 500 0 L 500 15 L 400 15 Z M 400 0 "/>
<path style=" stroke:none;fill-rule:nonzero;fill:url(#linear5);" d="M 500 0 L 600 0 L 600 15 L 500 15 Z M 500 0 "/>
<path style=" stroke:none;fill-rule:nonzero;fill:url(#linear6);" d="M 0 15 L 100 15 L 100 30 L 0 30 Z M 0 15 "/>
<path style=" stroke:none;fill-rule:nonzero;fill:url(#linear7);" d="M 100 15 L 200 15 L 200 30 L 100 30 Z M 100 15 "/>
<path style=" stroke:none;fill-rule:nonzero;fill:url(#linear8);" d="M 200 15 L 300 15 L 300 30 L 200 30 Z M 200 15 "/>
<path style=" stroke:none;fill-rule:nonzero;fill:url(#linear9);" d="M 300 15 L 400 15 L 400 30 L 300 30 Z M 300 15 "/>
<path style=" stroke:none;fill-rule:nonzero;fill:url(#linear10);" d="M 400 15 L 500 15 L 500 30 L 400 30 Z M 400 15 "/>
<path style=" stroke:none;fill-rule:nonzero;fill:url(#linear11);" d="M 500 15 L 600 15 L 600 30 L 500 30 Z M 500 15 "/>
</g>
</svg>
