<?xml version="1.0" encoding="UTF-8"?>
<svg xmlns="http://www.w3.org/2000/svg" xmlns:xlink="http://www.w3.org/1999/xlink" width="600pt" height="15pt" viewBox="0 0 600 15" version="1.1" shape-rendering="crispEdges">
<defs>
<linearGradient id="linear0" gradientUnits="userSpaceOnUse" x1="68.84675" y1="0" x2="75.1935" y2="0" >
<stop offset="0" style="stop-color:rgb(50.196078%,0%,50.196078%);stop-opacity:1;"/>
<stop offset="1" style="stop-color:rgb(50.196078%,0%,50.196078%);stop-opacity:0.5;"/>
</linearGradient>
<linearGradient id="linear1" gradientUnits="userSpaceOnUse" x1="119.04025" y1="0" x2="125.387" y2="0" >
<stop offset="0" style="stop-color:rgb(100%,64.705882%,0%);stop-opacity:1;"/>
<stop offset="1" style="stop-color:rgb(100%,64.705882%,0%);stop-opacity:0.5;"/>
</linearGradient>
<linearGradient id="linear2" gradientUnits="userSpaceOnUse" x1="169.23375" y1="0" x2="175.5805" y2="0" >
<stop offset="0" style="stop-color:rgb(100%,38.823529%,27.843137%);stop-opacity:1;"/>
<stop offset="1" style="stop-color:rgb(100%,38.823529%,27.843137%);stop-opacity:0.5;"/>
</linearGradient>
<linearGradient id="linear3" gradientUnits="userSpaceOnUse" x1="219.42725" y1="0" x2="225.774" y2="0" >
<stop offset="0" style="stop-color:rgb(50.196078%,0%,50.196078%);stop-opacity:1;"/>
<stop offset="1" style="stop-color:rgb(50.196078%,0%,50.196078%);stop-opacity:0.5;"/>
</linearGradient>
<linearGradient id="linear4" gradientUnits="userSpaceOnUse" x1="269.62075" y1="0" x2="275.9675" y2="0" >
<stop offset="0" style="stop-color:rgb(100%,64.705882%,0%);stop-opacity:1;"/>
<stop offset="1" style="stop-color:rgb(100%,64.705882%,0%);stop-opacity:0.5;"/>
</linearGradient>
<linearGradient id="linear5" gradientUnits="userSpaceOnUse" x1="319.81425" y1="0" x2="326.161" y2="0" >
<stop offset="0" style="stop-color:rgb(100%,38.823529%,27.843137%);stop-opacity:1;"/>
<stop offset="1" style="stop-color:rgb(100%,38.823529%,27.843137%);stop-opacity:0.5;"/>
</linearGradient>
<linearGradient id="linear6" gradientUnits="userSpaceOnUse" x1="370.00775" y1="0" x2="376.3545" y2="0" >
<stop offset="0" style="stop-color:rgb(50.196078%,0%,50.196078%);stop-opacity:1;"/>
<stop offset="1" style="stop-color:rgb(50.196078%,0%,50.196078%);stop-opacity:0.5;"/>
</linearGradient>
<linearGradient id="linear7" gradientUnits="userSpaceOnUse" x1="420.20125" y1="0" x2="426.548" y2="0" >
<stop offset="0" style="stop-color:rgb(100%,64.705882%,0%);stop-opacity:1;"/>
<stop offset="1" style="stop-color:rgb(100%,64.705882%,0%);stop-opacity:0.5;"/>
</linearGradient>
<linearGradient id="linear8" gradientUnits="userSpaceOnUse" x1="470.39475" y1="0" x2="476.7415" y2="0" >
<stop offset="0" style="stop-color:rgb(100%,38.823529%,27.843137%);stop-opacity:1;"/>
<stop offset="1" style="stop-color:rgb(100%,38.823529%,27.843137%);stop-opacity:0.5;"/>
</linearGradient>
<linearGradient id="linear9" gradientUnits="userSpaceOnUse" x1="520.58825" y1="0" x2="526.935" y2="0" >
<stop offset="0" style="stop-color:rgb(50.196078%,0%,50.196078%);stop-opacity:1;"/>
<stop offset="1" style="stop-color:rgb(50.196078%,0%,50.196078%);stop-opacity:0.5;"/>
</linearGradient>
<linearGradient id="linear10" gradientUnits="userSpaceOnUse" x1="570.78175" y1="0" x2="577.1285" y2="0" >
<stop offset="0" style="stop-color:rgb(100%,64.705882%,0%);stop-opacity:1;"/>
<stop offset="1" style="stop-color:rgb(100%,64.705882%,0%);stop-opacity:0.5;"/>
</linearGradient>
<linearGradient id="linear11" gradientUnits="userSpaceOnUse" x1="583.47525" y1="0" x2="589.822" y2="0" >
<stop offset="0" style="stop-color:rgb(100%,38.823529%,27.843137%);stop-opacity:1;"/>
<stop offset="1" style="stop-color:rgb(100%,38.823529%,27.843137%);stop-opacity:0.5;"/>
</linearGradient>
<linearGradient id="linear12" gradientUnits="userSpaceOnUse" x1="533.28175" y1="0" x2="539.6285" y2="0" >
<stop offset="0" style="stop-color:rgb(100%,64.705882%,0%);stop-opacity:1;"/>
<stop offset="1" style="stop-color:rgb(100%,64.705882%,0%);stop-opacity:0.5;"/>
</linearGradient>
<linearGradient id="linear13" gradientUnits="userSpaceOnUse" x1="483.08825" y1="0" x2="489.435" y2="0" >
<stop offset="0" style="stop-color:rgb(50.196078%,0%,50.196078%);stop-opacity:1;"/>
<stop offset="1" style="stop-color:rgb(50.196078%,0%,50.196078%);stop-opacity:0.5;"/>
</linearGradient>
<linearGradient id="linear14" gradientUnits="userSpaceOnUse" x1="432.89475" y1="0" x2="439.2415" y2="0" >
<stop offset="0" style="stop-color:rgb(100%,38.823529%,27.843137%);stop-opacity:1;"/>
<stop offset="1" style="stop-color:rgb(100%,38.823529%,27.843137%);stop-opacity:0.5;"/>
</linearGradient>
<linearGradient id="linear15" gradientUnits="userSpaceOnUse" x1="382.70125" y1="0" x2="389.048" y2="0" >
<stop offset="0" style="stop-color:rgb(100%,64.705882%,0%);stop-opacity:1;"/>
<stop offset="1" style="stop-color:rgb(100%,64.705882%,0%);stop-opacity:0.5;"/>
</linearGradient>
<linearGradient id="linear16" gradientUnits="userSpaceOnUse" x1="332.50775" y1="0" x2="338.8545" y2="0" >
<stop offset="0" style="stop-color:rgb(50.196078%,0%,50.196078%);stop-opacity:1;"/>
<stop offset="1" style="stop-color:rgb(50.196078%,0%,50.196078%);stop-opacity:0.5;"/>
</linearGradient>
<linearGradient id="linear17" gradientUnits="userSpaceOnUse" x1="282.31425" y1="0" x2="288.661" y2="0" >
<stop offset="0" style="stop-color:rgb(100%,38.823529%,27.843137%);stop-opacity:1;"/>
<stop offset="1" style="stop-color:rgb(100%,38.823529%,27.843137%);stop-opacity:0.5;"/>
</linearGradient>
<linearGradient id="linear18" gradientUnits="userSpaceOnUse" x1="232.12075" y1="0" x2="238.4675" y2="0" >
<stop offset="0" style="stop-color:rgb(100%,64.705882%,0%);stop-opacity:1;"/>
<stop offset="1" style="stop-color:rgb(100%,64.705882%,0%);stop-opacity:0.5;"/>
</linearGradient>
<linearGradient id="linear19" gradientUnits="userSpaceOnUse" x1="181.92725" y1="0" x2="188.274" y2="0" >
<stop offset="0" style="stop-color:rgb(50.196078%,0%,50.196078%);stop-opacity:1;"/>
<stop offset="1" style="stop-color:rgb(50.196078%,0%,50.196078%);stop-opacity:0.5;"/>
</linearGradient>
<linearGradient id="linear20" gradientUnits="userSpaceOnUse" x1="131.73375" y1="0" x2="138.0805" y2="0" >
<stop offset="0" style="stop-color:rgb(100%,38.823529%,27.843137%);stop-opacity:1;"/>
<stop offset="1" style="stop-color:rgb(100%,38.823529%,27.843137%);stop-opacity:0.5;"/>
</linearGradient>
<linearGradient id="linear21" gradientUnits="userSpaceOnUse" x1="81.54025" y1="0" x2="87.887" y2="0" >
<stop offset="0" style="stop-color:rgb(100%,64.705882%,0%);stop-opacity:1;"/>
<stop offset="1" style="stop-color:rgb(100%,64.705882%,0%);stop-opacity:0.5;"/>
</linearGradient>
<linearGradient id="linear22" gradientUnits="userSpaceOnUse" x1="31.34675" y1="0" x2="37.6935" y2="0" >
<stop offset="0" style="stop-color:rgb(50.196078%,0%,50.196078%);stop-opacity:1;"/>
<stop offset="1" style="stop-color:rgb(50.196078%,0%,50.196078%);stop-opacity:0.5;"/>
</linearGradient>
<linearGradient id="linear23" gradientUnits="userSpaceOnUse" x1="25" y1="0" x2="31.34675" y2="0" >
<stop offset="0" style="stop-color:rgb(100%,64.705882%,0%);stop-opacity:1;"/>
<stop offset="1" style="stop-color:rgb(100%,64.705882%,0%);stop-opacity:0.5;"/>
</linearGradient>
<linearGradient id="linear24" gradientUnits="userSpaceOnUse" x1="75.1935" y1="0" x2="81.54025" y2="0" >
<stop offset="0" style="stop-color:rgb(100%,38.823529%,27.843137%);stop-opacity:1;"/>
<stop offset="1" style="stop-color:rgb(100%,38.823529%,27.843137%);stop-opacity:0.5;"/>
</linearGradient>
<linearGradient id="linear25" gradientUnits="userSpaceOnUse" x1="125.387" y1="0" x2="131.73375" y2="0" >
<stop offset="0" style="stop-color:rgb(50.196078%,0%,50.196078%);stop-opacity:1;"/>
<stop offset="1" style="stop-color:rgb(50.196078%,0%,50.196078%);stop-opacity:0.5;"/>
</linearGradient>
<linearGradient id="linear26" gradientUnits="userSpaceOnUse" x1="175.5805" y1="0" x2="181.92725" y2="0" >
<stop offset="0" style="stop-color:rgb(100%,64.705882%,0%);stop-opacity:1;"/>
<stop offset="1" style="stop-color:rgb(100%,64.705882%,0%);stop-opacity:0.5;"/>
</linearGradient>
<linearGradient id="linear27" gradientUnits="userSpaceOnUse" x1="225.774" y1="0" x2="232.12075" y2="0" >
<stop offset="0" style="stop-color:rgb(100%,38.823529%,27.843137%);stop-opacity:1;"/>
<stop offset="1" style="stop-color:rgb(100%,38.823529%,27.843137%);stop-opacity:0.5;"/>
</linearGradient>
<linearGradient id="linear28" gradientUnits="userSpaceOnUse" x1="275.9675" y1="0" x2="282.31425" y2="0" >
<stop offset="0" style="stop-color:rgb(50.196078%,0%,50.196078%);stop-opacity:1;"/>
<stop offset="1" style="stop-color:rgb(50.196078%,0%,50.196078%);stop-opacity:0.5;"/>
</linearGradient>
<linearGradient id="linear29" gradientUnits="userSpaceOnUse" x1="326.161" y1="0" x2="332.50775" y2="0" >
<stop offset="0" style="stop-color:rgb(100%,64.705882%,0%);stop-opacity:1;"/>
<stop offset="1" style="stop-color:rgb(100%,64.705882%,0%);stop-opacity:0.5;"/>
</linearGradient>
<linearGradient id="linear30" gradientUnits="userSpaceOnUse" x1="376.3545" y1="0" x2="382.70125" y2="0" >
<stop offset="0" style="stop-color:rgb(100%,38.823529%,27.843137%);stop-opacity:1;"/>
<stop offset="1" style="stop-color:rgb(100%,38.823529%,27.843137%);stop-opacity:0.5;"/>
</linearGradient>
<linearGradient id="linear31" gradientUnits="userSpaceOnUse" x1="426.548" y1="0" x2="432.89475" y2="0" >
<stop offset="0" style="stop-color:rgb(50.196078%,0%,50.196078%);stop-opacity:1;"/>
<stop offset="1" style="stop-color:rgb(50.196078%,0%,50.196078%);stop-opacity:0.5;"/>
</linearGradient>
<linearGradient id="linear32" gradientUnits="userSpaceOnUse" x1="476.7415" y1="0" x2="483.08825" y2="0" >
<stop offset="0" style="stop-color:rgb(100%,64.705882%,0%);stop-opacity:1;"/>
<stop offset="1" style="stop-color:rgb(100%,64.705882%,0%);stop-opacity:0.5;"/>
</linearGradient>
<linearGradient id="linear33" gradientUnits="userSpaceOnUse" x1="526.935" y1="0" x2="533.28175" y2="0" >
<stop offset="0" style="stop-color:rgb(100%,38.823529%,27.843137%);stop-opacity:1;"/>
<stop offset="1" style="stop-color:rgb(100%,38.823529%,27.843137%);stop-opacity:0.5;"/>
</linearGradient>
<linearGradient id="linear34" gradientUnits="userSpaceOnUse" x1="577.1285" y1="0" x2="583.47525" y2="0" >
<stop offset="0" style="stop-color:rgb(50.196078%,0%,50.196078%);stop-opacity:1;"/>
<stop offset="1" style="stop-color:rgb(50.196078%,0%,50.196078%);stop-opacity:0.5;"/>
</linearGradient>
<linearGradient id="linear35" gradientUnits="userSpaceOnUse" x1="0" y1="0" x2="12.5" y2="0" >
<stop offset="0" style="stop-color:rgb(100%,0%,0%);stop-opacity:1;"/>
<stop offset="1" style="stop-color:rgb(100%,0%,0%);stop-opacity:0.5;"/>
</linearGradient>
<linearGradient id="linear36" gradientUnits="userSpaceOnUse" x1="12.5" y1="0" x2="25" y2="0" >
<stop offset="0" style="stop-color:rgb(0%,0%,100%);stop-opacity:1;"/>
<stop offset="1" style="stop-color:rgb(0%,0%,100%);stop-opacity:0.5;"/>
</linearGradient>
<linearGradient id="linear37" gradientUnits="userSpaceOnUse" x1="37.5" y1="0" x2="50" y2="0" >
<stop offset="0" style="stop-color:rgb(50.196078%,50.196078%,50.196078%);stop-opacity:1;"/>
<stop offset="1" style="stop-color:rgb(50.196078%,50.196078%,50.196078%);stop-opacity:0.5;"/>
</linearGradient>
<linearGradient id="linear38" gradientUnits="userSpaceOnUse" x1="50" y1="0" x2="62.5" y2="0" >
<stop offset="0" style="stop-color:rgb(100%,0%,0%);stop-opacity:1;"/>
<stop offset="1" style="stop-color:rgb(100%,0%,0%);stop-opacity:0.5;"/>
</linearGradient>
<linearGradient id="linear39" gradientUnits="userSpaceOnUse" x1="62.5" y1="0" x2="75" y2="0" >
<stop offset="0" style="stop-color:rgb(0%,0%,100%);stop-opacity:1;"/>
<stop offset="1" style="stop-color:rgb(0%,0%,100%);stop-opacity:0.5;"/>
</linearGradient>
<linearGradient id="linear40" gradientUnits="userSpaceOnUse" x1="87.5" y1="0" x2="100" y2="0" >
<stop offset="0" style="stop-color:rgb(50.196078%,50.196078%,50.196078%);stop-opacity:1;"/>
<stop offset="1" style="stop-color:rgb(50.196078%,50.196078%,50.196078%);stop-opacity:0.5;"/>
</linearGradient>
<linearGradient id="linear41" gradientUnits="userSpaceOnUse" x1="100" y1="0" x2="112.5" y2="0" >
<stop offset="0" style="stop-color:rgb(100%,0%,0%);stop-opacity:1;"/>
<stop offset="1" style="stop-color:rgb(100%,0%,0%);stop-opacity:0.5;"/>
</linearGradient>
<linearGradient id="linear42" gradientUnits="userSpaceOnUse" x1="112.5" y1="0" x2="125" y2="0" >
<stop offset="0" style="stop-color:rgb(0%,0%,100%);stop-opacity:1;"/>
<stop offset="1" style="stop-color:rgb(0%,0%,100%);stop-opacity:0.5;"/>
</linearGradient>
<linearGradient id="linear43" gradientUnits="userSpaceOnUse" x1="137.5" y1="0" x2="150" y2="0" >
<stop offset="0" style="stop-color:rgb(50.196078%,50.196078%,50.196078%);stop-opacity:1;"/>
<stop offset="1" style="stop-color:rgb(50.196078%,50.196078%,50.196078%);stop-opacity:0.5;"/>
</linearGradient>
<linearGradient id="linear44" gradientUnits="userSpaceOnUse" x1="150" y1="0" x2="162.5" y2="0" >
<stop offset="0" style="stop-color:rgb(100%,0%,0%);stop-opacity:1;"/>
<stop offset="1" style="stop-color:rgb(100%,0%,0%);stop-opacity:0.5;"/>
</linearGradient>
<linearGradient id="linear45" gradientUnits="userSpaceOnUse" x1="162.5" y1="0" x2="175" y2="0" >
<stop offset="0" style="stop-color:rgb(0%,0%,100%);stop-opacity:1;"/>
<stop offset="1" style="stop-color:rgb(0%,0%,100%);stop-opacity:0.5;"/>
</linearGradient>
<linearGradient id="linear46" gradientUnits="userSpaceOnUse" x1="187.5" y1="0" x2="200" y2="0" >
<stop offset="0" style="stop-color:rgb(50.196078%,50.196078%,50.196078%);stop-opacity:1;"/>
<stop offset="1" style="stop-color:rgb(50.196078%,50.196078%,50.196078%);stop-opacity:0.5;"/>
</linearGradient>
<linearGradient id="linear47" gradientUnits="userSpaceOnUse" x1="200" y1="0" x2="212.5" y2="0" >
<stop offset="0" style="stop-color:rgb(100%,0%,0%);stop-opacity:1;"/>
<stop offset="1" style="stop-color:rgb(100%,0%,0%);stop-opacity:0.5;"/>
</linearGradient>
<linearGradient id="linear48" gradientUnits="userSpaceOnUse" x1="212.5" y1="0" x2="225" y2="0" >
<stop offset="0" style="stop-color:rgb(0%,0%,100%);stop-opacity:1;"/>
<stop offset="1" style="stop-color:rgb(0%,0%,100%);stop-opacity:0.5;"/>
</linearGradient>
<linearGradient id="linear49" gradientUnits="userSpaceOnUse" x1="237.5" y1="0" x2="250" y2="0" >
<stop offset="0" style="stop-color:rgb(50.196078%,50.196078%,50.196078%);stop-opacity:1;"/>
<stop offset="1" style="stop-color:rgb(50.196078%,50.196078%,50.196078%);stop-opacity:0.5;"/>
</linearGradient>
<linearGradient id="linear50" gradientUnits="userSpaceOnUse" x1="250" y1="0" x2="262.5" y2="0" >
<stop offset="0" style="stop-color:rgb(100%,0%,0%);stop-opacity:1;"/>
<stop offset="1" style="stop-color:rgb(100%,0%,0%);stop-opacity:0.5;"/>
</linearGradient>
<linearGradient id="linear51" gradientUnits="userSpaceOnUse" x1="262.5" y1="0" x2="275" y2="0" >
<stop offset="0" style="stop-color:rgb(0%,0%,100%);stop-opacity:1;"/>
<stop offset="1" style="stop-color:rgb(0%,0%,100%);stop-opacity:0.5;"/>
</linearGradient>
<linearGradient id="linear52" gradientUnits="userSpaceOnUse" x1="287.5" y1="0" x2="300" y2="0" >
<stop offset="0" style="stop-color:rgb(50.196078%,50.196078%,50.196078%);stop-opacity:1;"/>
<stop offset="1" style="stop-color:rgb(50.196078%,50.196078%,50.196078%);stop-opacity:0.5;"/>
</linearGradient>
<linearGradient id="linear53" gradientUnits="userSpaceOnUse" x1="300" y1="0" x2="312.5" y2="0" >
<stop offset="0" style="stop-color:rgb(100%,0%,0%);stop-opacity:1;"/>
<stop offset="1" style="stop-color:rgb(100%,0%,0%);stop-opacity:0.5;"/>
</linearGradient>
<linearGradient id="linear54" gradientUnits="userSpaceOnUse" x1="312.5" y1="0" x2="325" y2="0" >
<stop offset="0" style="stop-color:rgb(0%,0%,100%);stop-opacity:1;"/>
<stop offset="1" style="stop-color:rgb(0%,0%,100%);stop-opacity:0.5;"/>
</linearGradient>
<linearGradient id="linear55" gradientUnits="userSpaceOnUse" x1="337.5" y1="0" x2="350" y2="0" >
<stop offset="0" style="stop-color:rgb(50.196078%,50.196078%,50.196078%);stop-opacity:1;"/>
<stop offset="1" style="stop-color:rgb(50.196078%,50.196078%,50.196078%);stop-opacity:0.5;"/>
</linearGradient>
<linearGradient id="linear56" gradientUnits="userSpaceOnUse" x1="350" y1="0" x2="362.5" y2="0" >
<stop offset="0" style="stop-color:rgb(100%,0%,0%);stop-opacity:1;"/>
<stop offset="1" style="stop-color:rgb(100%,0%,0%);stop-opacity:0.5;"/>
</linearGradient>
<linearGradient id="linear57" gradientUnits="userSpaceOnUse" x1="362.5" y1="0" x2="375" y2="0" >
<stop offset="0" style="stop-color:rgb(0%,0%,100%);stop-opacity:1;"/>
<stop offset="1" style="stop-color:rgb(0%,0%,100%);stop-opacity:0.5;"/>
</linearGradient>
<linearGradient id="linear58" gradientUnits="userSpaceOnUse" x1="387.5" y1="0" x2="400" y2="0" >
<stop offset="0" style="stop-color:rgb(50.196078%,50.196078%,50.196078%);stop-opacity:1;"/>
<stop offset="1" style="stop-color:rgb(50.196078%,50.196078%,50.196078%);stop-opacity:0.5;"/>
</linearGradient>
<linearGradient id="linear59" gradientUnits="userSpaceOnUse" x1="400" y1="0" x2="412.5" y2="0" >
<stop offset="0" style="stop-color:rgb(100%,0%,0%);stop-opacity:1;"/>
<stop offset="1" style="stop-color:rgb(100%,0%,0%);stop-opacity:0.5;"/>
</linearGradient>
<linearGradient id="linear60" gradientUnits="userSpaceOnUse" x1="412.5" y1="0" x2="425" y2="0" >
<stop offset="0" style="stop-color:rgb(0%,0%,100%);stop-opacity:1;"/>
<stop offset="1" style="stop-color:rgb(0%,0%,100%);stop-opacity:0.5;"/>
</linearGradient>
<linearGradient id="linear61" gradientUnits="userSpaceOnUse" x1="437.5" y1="0" x2="450" y2="0" >
<stop offset="0" style="stop-color:rgb(50.196078%,50.196078%,50.196078%);stop-opacity:1;"/>
<stop offset="1" style="stop-color:rgb(50.196078%,50.196078%,50.196078%);stop-opacity:0.5;"/>
</linearGradient>
<linearGradient id="linear62" gradientUnits="userSpaceOnUse" x1="450" y1="0" x2="462.5" y2="0" >
<stop offset="0" style="stop-color:rgb(100%,0%,0%);stop-opacity:1;"/>
<stop offset="1" style="stop-color:rgb(100%,0%,0%);stop-opacity:0.5;"/>
</linearGradient>
<linearGradient id="linear63" gradientUnits="userSpaceOnUse" x1="462.5" y1="0" x2="475" y2="0" >
<stop offset="0" style="stop-color:rgb(0%,0%,100%);stop-opacity:1;"/>
<stop offset="1" style="stop-color:rgb(0%,0%,100%);stop-opacity:0.5;"/>
</linearGradient>
<linearGradient id="linear64" gradientUnits="userSpaceOnUse" x1="487.5" y1="0" x2="500" y2="0" >
<stop offset="0" style="stop-color:rgb(50.196078%,50.196078%,50.196078%);stop-opacity:1;"/>
<stop offset="1" style="stop-color:rgb(50.196078%,50.196078%,50.196078%);stop-opacity:0.5;"/>
</linearGradient>
<linearGradient id="linear65" gradientUnits="userSpaceOnUse" x1="500" y1="0" x2="512.5" y2="0" >
<stop offset="0" style="stop-color:rgb(100%,0%,0%);stop-opacity:1;"/>
<stop offset="1" style="stop-color:rgb(100%,0%,0%);stop-opacity:0.5;"/>
</linearGradient>
<linearGradient id="linear66" gradientUnits="userSpaceOnUse" x1="512.5" y1="0" x2="525" y2="0" >
<stop offset="0" style="stop-color:rgb(0%,0%,100%);stop-opacity:1;"/>
<stop offset="1" style="stop-color:rgb(0%,0%,100%);stop-opacity:0.5;"/>
</linearGradient>
<linearGradient id="linear67" gradientUnits="userSpaceOnUse" x1="537.5" y1="0" x2="550" y2="0" >
<stop offset="0" style="stop-color:rgb(50.196078%,50.196078%,50.196078%);stop-opacity:1;"/>
<stop offset="1" style="stop-color:rgb(50.196078%,50.196078%,50.196078%);stop-opacity:0.5;"/>
</linearGradient>
<linearGradient id="linear68" gradientUnits="userSpaceOnUse" x1="550" y1="0" x2="562.5" y2="0" >
<stop offset="0" style="stop-color:rgb(100%,0%,0%);stop-opacity:1;"/>
<stop offset="1" style="stop-color:rgb(100%,0%,0%);stop-opacity:0.5;"/>
</linearGradient>
<linearGradient id="linear69" gradientUnits="userSpaceOnUse" x1="562.5" y1="0" x2="575" y2="0" >
<stop offset="0" style="stop-color:rgb(0%,0%,100%);stop-opacity:1;"/>
<stop offset="1" style="stop-color:rgb(0%,0%,100%);stop-opacity:0.5;"/>
</linearGradient>
<linearGradient id="linear70" gradientUnits="userSpaceOnUse" x1="587.5" y1="0" x2="600" y2="0" >
<stop offset="0" style="stop-color:rgb(50.196078%,50.196078%,50.196078%);stop-opacity:1;"/>
<stop offset="1" style="stop-color:rgb(50.196078%,50.196078%,50.196078%);stop-opacity:0.5;"/>
</linearGradient>
</defs>
<g id="surface85">
<path style=" stroke:none;fill-rule:nonzero;fill:url(#linear0);" d="M 75 0 L 75.195312 0 L 75.195312 15 L 75 15 Z M 75 0 "/>
<path style=" stroke:none;fill-rule:nonzero;fill:url(#linear1);" d="M 125 0 L 125.386719 0 L 125.386719 15 L 125 15 Z M 125 0 "/>
<path style=" stroke:none;fill-rule:nonzero;fill:url(#linear2);" d="M 175 0 L 175.582031 0 L 175.582031 15 L 175 15 Z M 175 0 "/>
<path style=" stroke:none;fill-rule:nonzero;fill:url(#linear3);" d="M 225 0 L 225.773438 0 L 225.773438 15 L 225 15 Z M 225 0 "/>
<path style=" stroke:none;fill-rule:nonzero;fill:url(#linear4);" d="M 275 0 L 275.96875 0 L 275.96875 15 L 275 15 Z M 275 0 "/>
<path style=" stroke:none;fill-rule:nonzero;fill:url(#linear5);" d="M 325 0 L 326.160156 0 L 326.160156 15 L 325 15 Z M 325 0 "/>
<path style=" stroke:none;fill-rule:nonzero;fill:url(#linear6);" d="M 375 0 L 376.355469 0 L 376.355469 15 L 375 15 Z M 375 0 "/>
<path style=" stroke:none;fill-rule:nonzero;fill:url(#linear7);" d="M 425 0 L 426.546875 0 L 426.546875 15 L 425 15 Z M 425 0 "/>
<path style=" stroke:none;fill-rule:nonzero;fill:url(#linear8);" d="M 475 0 L 476.742188 0 L 476.742188 15 L 475 15 Z M 475 0 "/>
<path style=" stroke:none;fill-rule:nonzero;fill:url(#linear9);" d="M 525 0 L 526.933594 0 L 526.933594 15 L 525 15 Z M 525 0 "/>
<path style=" stroke:none;fill-rule:nonzero;fill:url(#linear10);" d="M 575 0 L 577.128906 0 L 577.128906 15 L 575 15 Z M 575 0 "/>
<path style=" stroke:none;fill-rule:nonzero;fill:url(#linear11);" d="M 583.476562 0 L 587.5 0 L 587.5 15 L 583.476562 15 Z M 583.476562 0 "/>
<path style=" stroke:none;fill-rule:nonzero;fill:url(#linear12);" d="M 533.28125 0 L 537.5 0 L 537.5 15 L 533.28125 15 Z M 533.28125 0 "/>
<path style=" stroke:none;fill-rule:nonzero;fill:url(#linear13);" d="M 483.089844 0 L 487.5 0 L 487.5 15 L 483.089844 15 Z M 483.089844 0 "/>
<path style=" stroke:none;fill-rule:nonzero;fill:url(#linear14);" d="M 432.894531 0 L 437.5 0 L 437.5 15 L 432.894531 15 Z M 432.894531 0 "/>
<path style=" stroke:none;fill-rule:nonzero;fill:url(#linear15);" d="M 382.703125 0 L 387.5 0 L 387.5 15 L 382.703125 15 Z M 382.703125 0 "/>
<path style=" stroke:none;fill-rule:nonzero;fill:url(#linear16);" d="M 332.507812 0 L 337.5 0 L 337.5 15 L 332.507812 15 Z M 332.507812 0 "/>
<path style=" stroke:none;fill-rule:nonzero;fill:url(#linear17);" d="M 282.3125 0 L 287.5 0 L 287.5 15 L 282.3125 15 Z M 282.3125 0 "/>
<path style=" stroke:none;fill-rule:nonzero;fill:url(#linear18);" d="M 232.121094 0 L 237.5 0 L 237.5 15 L 232.121094 15 Z M 232.121094 0 "/>
<path style=" stroke:none;fill-rule:nonzero;fill:url(#linear19);" d="M 181.925781 0 L 187.5 0 L 187.5 15 L 181.925781 15 Z M 181.925781 0 "/>
<path style=" stroke:none;fill-rule:nonzero;fill:url(#linear20);" d="M 131.734375 0 L 137.5 0 L 137.5 15 L 131.734375 15 Z M 131.734375 0 "/>
<path style=" stroke:none;fill-rule:nonzero;fill:url(#linear21);" d="M 81.539062 0 L 87.5 0 L 87.5 15 L 81.539062 15 Z M 81.539062 0 "/>
<path style=" stroke:none;fill-rule:nonzero;fill:url(#linear22);" d="M 31.347656 0 L 37.5 0 L 37.5 15 L 31.347656 15 Z M 31.347656 0 "/>
<path style=" stroke:none;fill-rule:nonzero;fill:url(#linear23);" d="M 25 0 L 31.347656 0 L 31.347656 15 L 25 15 Z M 25 0 "/>
<path style=" stroke:none;fill-rule:nonzero;fill:url(#linear24);" d="M 75.195312 0 L 81.542969 0 L 81.542969 15 L 75.195312 15 Z M 75.195312 0 "/>
<path style=" stroke:none;fill-rule:nonzero;fill:url(#linear25);" d="M 125.386719 0 L 131.734375 0 L 131.734375 15 L 125.386719 15 Z M 125.386719 0 "/>
<path style=" stroke:none;fill-rule:nonzero;fill:url(#linear26);" d="M 175.582031 0 L 181.929688 0 L 181.929688 15 L 175.582031 15 Z M 175.582031 0 "/>
<path style=" stroke:none;fill-rule:nonzero;fill:url(#linear27);" d="M 225.773438 0 L 232.121094 0 L 232.121094 15 L 225.773438 15 Z M 225.773438 0 "/>
<path style=" stroke:none;fill-rule:nonzero;fill:url(#linear28);" d="M 275.96875 0 L 282.316406 0 L 282.316406 15 L 275.96875 15 Z M 275.96875 0 "/>
<path style=" stroke:none;fill-rule:nonzero;fill:url(#linear29);" d="M 326.160156 0 L 332.507812 0 L 332.507812 15 L 326.160156 15 Z M 326.160156 0 "/>
<path style=" stroke:none;fill-rule:nonzero;fill:url(#linear30);" d="M 376.355469 0 L 382.703125 0 L 382.703125 15 L 376.355469 15 Z M 376.355469 0 "/>
<path style=" stroke:none;fill-rule:nonzero;fill:url(#linear31);" d="M 426.546875 0 L 432.894531 0 L 432.894531 15 L 426.546875 15 Z M 426.546875 0 "/>
<path style=" stroke:none;fill-rule:nonzero;fill:url(#linear32);" d="M 476.742188 0 L 483.089844 0 L 483.089844 15 L 476.742188 15 Z M 476.742188 0 "/>
<path style=" stroke:none;fill-rule:nonzero;fill:url(#linear33);" d="M 526.933594 0 L 533.28125 0 L 533.28125 15 L 526.933594 15 Z M 526.933594 0 "/>
<path style=" stroke:none;fill-rule:nonzero;fill:url(#linear34);" d="M 577.128906 0 L 583.476562 0 L 583.476562 15 L 577.128906 15 Z M 577.128906 0 "/>
<path style=" stroke:none;fill-rule:nonzero;fill:url(#linear35);" d="M 0 0 L 12.5 0 L 12.5 15 L 0 15 Z M 0 0 "/>
<path style=" stroke:none;fill-rule:nonzero;fill:url(#linear36);" d="M 12.5 0 L 25 0 L 25 15 L 12.5 15 Z M 12.5 0 "/>
<path style=" stroke:none;fill-rule:nonzero;fill:url(#linear37);" d="M 37.5 0 L 50 0 L 50 15 L 37.5 15 Z M 37.5 0 "/>
<path style=" stroke:none;fill-rule:nonzero;fill:url(#linear38);" d="M 50 0 L 62.5 0 L 62.5 15 L 50 15 Z M 50 0 "/>
<path style=" stroke:none;fill-rule:nonzero;fill:url(#linear39);" d="M 62.5 0 L 75 0 L 75 15 L 62.5 15 Z M 62.5 0 "/>
<path style=" stroke:none;fill-rule:nonzero;fill:url(#linear40);" d="M 87.5 0 L 100 0 L 100 15 L 87.5 15 Z M 87.5 0 "/>
<path style=" stroke:none;fill-rule:nonzero;fill:url(#linear41);" d="M 100 0 L 112.5 0 L 112.5 15 L 100 15 Z M 100 0 "/>
<path style=" stroke:none;fill-rule:nonzero;fill:url(#linear42);" d="M 112.5 0 L 125 0 L 125 15 L 112.5 15 Z M 112.5 0 "/>
<path style=" stroke:none;fill-rule:nonzero;fill:url(#linear43);" d="M 137.5 0 L 150 0 L 150 15 L 137.5 15 Z M 137.5 0 "/>
<path style=" stroke:none;fill-rule:nonzero;fill:url(#linear44);" d="M 150 0 L 162.5 0 L 162.5 15 L 150 15 Z M 150 0 "/>
<path style=" stroke:none;fill-rule:nonzero;fill:url(#linear45);" d="M 162.5 0 L 175 0 L 175 15 L 162.5 15 Z M 162.5 0 "/>
<path style=" stroke:none;fill-rule:nonzero;fill:url(#linear46);" d="M 187.5 0 L 200 0 L 200 15 L 187.5 15 Z M 187.5 0 "/>
<path style=" stroke:none;fill-rule:nonzero;fill:url(#linear47);" d="M 200 0 L 212.5 0 L 212.5 15 L 200 15 Z M 200 0 "/>
<path style=" stroke:none;fill-rule:nonzero;fill:url(#linear48);" d="M 212.5 0 L 225 0 L 225 15 L 212.5 15 Z M 212.5 0 "/>
<path style=" stroke:none;fill-rule:nonzero;fill:url(#linear49);" d="M 237.5 0 L 250 0 L 250 15 L 237.5 15 Z M 237.5 0 "/>
<path style=" stroke:none;fill-rule:nonzero;fill:url(#linear50);" d="M 250 0 L 262.5 0 L 262.5 15 L 250 15 Z M 250 0 "/>
<path style=" stroke:none;fill-rule:nonzero;fill:url(#linear51);" d="M 262.5 0 L 275 0 L 275 15 L 262.5 15 Z M 262.5 0 "/>
<path style=" stroke:none;fill-rule:nonzero;fill:url(#linear52);" d="M 287.5 0 L 300 0 L 300 15 L 287.5 15 Z M 287.5 0 "/>
<path style=" stroke:none;fill-rule:nonzero;fill:url(#linear53);" d="M 300 0 L 312.5 0 L 312.5 15 L 300 15 Z M 300 0 "/>
<path style=" stroke:none;fill-rule:nonzero;fill:url(#linear54);" d="M 312.5 0 L 325 0 L 325 15 L 312.5 15 Z M 312.5 0 "/>
<path style=" stroke:none;fill-rule:nonzero;fill:url(#linear55);" d="M 337.5 0 L 350 0 L 350 15 L 337.5 15 Z M 337.5 0 "/>
<path style=" stroke:none;fill-rule:nonzero;fill:url(#linear56);" d="M 350 0 L 362.5 0 L 362.5 15 L 350 15 Z M 350 0 "/>
<path style=" stroke:none;fill-rule:nonzero;fill:url(#linear57);" d="M 362.5 0 L 375 0 L 375 15 L 362.5 15 Z M 362.5 0 "/>
<path style=" stroke:none;fill-rule:nonzero;fill:url(#linear58);" d="M 387.5 0 L 400 0 L 400 15 L 387.5 15 Z M 387.5 0 "/>
<path style=" stroke:none;fill-rule:nonzero;fill:url(#linear59);" d="M 400 0 L 412.5 0 L 412.5 15 L 400 15 Z M 400 0 "/>
<path style=" stroke:none;fill-rule:nonzero;fill:url(#linear60);" d="M 412.5 0 L 425 0 L 425 15 L 412.5 15 Z M 412.5 0 "/>
<path style=" stroke:none;fill-rule:nonzero;fill:url(#linear61);" d="M 437.5 0 L 450 0 L 450 15 L 437.5 15 Z M 437.5 0 "/>
<path style=" stroke:none;fill-rule:nonzero;fill:url(#linear62);" d="M 450 0 L 462.5 0 L 462.5 15 L 450 15 Z M 450 0 "/>
<path style=" stroke:none;fill-rule:nonzero;fill:url(#linear63);" d="M 462.5 0 L 475 0 L 475 15 L 462.5 15 Z M 462.5 0 "/>
<path style=" stroke:none;fill-rule:nonzero;fill:url(#linear64);" d="M 487.5 0 L 500 0 L 500 15 L 487.5 15 Z M 487.5 0 "/>
<path style=" stroke:none;fill-rule:nonzero;fill:url(#linear65);" d="M 500 0 L 512.5 0 L 512.5 15 L 500 15 Z M 500 0 "/>
<path style=" stroke:none;fill-rule:nonzero;fill:url(#linear66);" d="M 512.5 0 L 525 0 L 525 15 L 512.5 15 Z M 512.5 0 "/>
<path style=" stroke:none;fill-rule:nonzero;fill:url(#linear67);" d="M 537.5 0 L 550 0 L 550 15 L 537.5 15 Z M 537.5 0 "/>
<path style=" stroke:none;fill-rule:nonzero;fill:url(#linear68);" d="M 550 0 L 562.5 0 L 562.5 15 L 550 15 Z M 550 0 "/>
<path style=" stroke:none;fill-rule:nonzero;fill:url(#linear69);" d="M 562.5 0 L 575 0 L 575 15 L 562.5 15 Z M 562.5 0 "/>
<path style=" stroke:none;fill-rule:nonzero;fill:url(#linear70);" d="M 587.5 0 L 600 0 L 600 15 L 587.5 15 Z M 587.5 0 "/>
</g>
</svg>
